<?xml version="1.0" encoding="UTF-8" standalone="no"?>
<!-- Created with Inkscape (http://www.inkscape.org/) -->

<svg
   version="1.1"
   id="svg2"
   width="666.66669"
   height="666.66669"
   viewBox="0 0 666.66669 666.66669"
   sodipodi:docname="7246083.ai"
   xmlns:inkscape="http://www.inkscape.org/namespaces/inkscape"
   xmlns:sodipodi="http://sodipodi.sourceforge.net/DTD/sodipodi-0.dtd"
   xmlns="http://www.w3.org/2000/svg"
   xmlns:svg="http://www.w3.org/2000/svg">
  <defs
     id="defs6">
    <clipPath
       clipPathUnits="userSpaceOnUse"
       id="clipPath14">
      <path
         d="M 500,0 H 0 v 500 h 500 z"
         id="path12" />
    </clipPath>
    <pattern
       patternTransform="translate(-51.1111,537.591)"
       patternUnits="userSpaceOnUse"
       x="0"
       y="0"
       width="500"
       height="500"
       id="pattern414">
      <path
         d="M 500,0 0,0 0,500 500,500 500,0 Z"
         style="fill:#ffca00;fill-opacity:1;fill-rule:nonzero;stroke:none"
         id="path16" />
      <g
         id="g412">
        <g
           clip-path="url(#clipPath14)"
           id="g410">
          <g
             transform="translate(174.1651,463.9353)"
             id="g20">
            <path
               d="m 0,0 c 5.513,-33.83 28.492,-64.328 59.491,-78.956 17.395,-8.208 36.751,-11.577 54.188,-19.696 17.437,-8.12 33.782,-23.151 35.002,-42.347 0.389,-6.115 -0.792,-12.259 -0.29,-18.366 0.503,-6.107 3.252,-12.639 8.879,-15.066 6.605,-2.848 14.031,0.959 20.203,4.655 17.62,10.552 35.46,21.275 49.773,36.005 14.313,14.73 24.932,34.184 24.735,54.722 -0.229,23.905 -14.573,45.047 -27.953,64.858 -13.38,19.812 -26.87,41.854 -25.062,65.692 0.962,12.686 6.26,25.53 2.724,37.75 -3.257,11.252 -13.314,19.15 -23.563,24.82 -30.399,16.82 -67.606,19.348 -100.616,9.28 C 44.796,113.374 24.097,93.81 9.496,63.435 0.098,43.884 -3.496,21.455 0,0"
               style="fill:#ffffff;fill-opacity:0.199997;fill-rule:nonzero;stroke:none;mix-blend-mode:darken"
               id="path18" />
          </g>
          <g
             transform="translate(174.1651,-36.0647)"
             id="g24">
            <path
               d="m 0,0 c 5.513,-33.83 28.492,-64.328 59.491,-78.956 17.395,-8.208 36.751,-11.576 54.188,-19.696 17.437,-8.12 33.782,-23.151 35.002,-42.347 0.389,-6.115 -0.792,-12.259 -0.29,-18.366 0.503,-6.107 3.252,-12.639 8.879,-15.066 6.605,-2.848 14.031,0.959 20.203,4.655 17.62,10.552 35.46,21.275 49.773,36.005 14.313,14.73 24.932,34.184 24.735,54.722 -0.229,23.905 -14.573,45.047 -27.953,64.858 -13.38,19.812 -26.87,41.854 -25.062,65.692 0.962,12.686 6.26,25.53 2.724,37.75 -3.257,11.252 -13.314,19.15 -23.563,24.821 -30.399,16.819 -67.606,19.347 -100.616,9.279 C 44.796,113.374 24.097,93.81 9.496,63.435 0.098,43.884 -3.496,21.455 0,0"
               style="fill:#ffffff;fill-opacity:0.199997;fill-rule:nonzero;stroke:none;mix-blend-mode:darken"
               id="path22" />
          </g>
          <g
             transform="translate(48.1677,386.061)"
             id="g28">
            <path
               d="m 0,0 c -27.68,0.073 -56.539,-9.478 -74.282,-30.724 -19.802,-23.71 -22.263,-59.716 -7.797,-87.011 14.466,-27.294 44.225,-45.18 75.03,-47.477 30.806,-2.296 61.925,10.221 84.306,31.513 16.301,15.509 28.58,36.772 27.958,59.263 -0.533,19.291 -11.676,47.544 -29.228,57.703 C 55.326,-4.774 23.42,-0.062 0,0"
               style="fill:#ffffff;fill-opacity:0.199997;fill-rule:nonzero;stroke:none;mix-blend-mode:darken"
               id="path26" />
          </g>
          <g
             transform="translate(309.9421,277.1576)"
             id="g32">
            <path
               d="M 0,0 C -34.944,34.944 -69.871,38.683 -84.935,34.546 -122.561,24.21 -125.06,14.808 -135.148,2.952 c -11.77,-13.833 -11.528,-34.324 -6.944,-51.914 9.506,-36.475 35.617,-68.345 69.583,-84.932 15.362,-7.502 32.766,-12.008 49.609,-9.177 C 63.927,-128.477 31.245,-31.245 0,0"
               style="fill:#ffffff;fill-opacity:0.199997;fill-rule:nonzero;stroke:none;mix-blend-mode:darken"
               id="path30" />
          </g>
          <g
             transform="translate(35.4117,472.7704)"
             id="g36">
            <path
               d="m 0,0 c 0.356,-13.173 7.381,-26.485 19.152,-32.412 12.745,-6.418 28.714,-3.25 40.555,4.715 12.59,8.47 21.569,22.133 24.348,37.051 3.873,20.791 -9.146,65.812 -38.113,54.9 C 22.984,55.606 -0.667,24.689 0,0"
               style="fill:#ffffff;fill-opacity:0.199997;fill-rule:nonzero;stroke:none;mix-blend-mode:darken"
               id="path34" />
          </g>
          <g
             transform="translate(35.4117,-27.2296)"
             id="g40">
            <path
               d="m 0,0 c 0.356,-13.173 7.381,-26.485 19.152,-32.412 12.745,-6.418 28.714,-3.25 40.555,4.715 12.59,8.47 21.569,22.133 24.348,37.051 3.873,20.791 -9.146,65.812 -38.113,54.9 C 22.984,55.606 -0.667,24.689 0,0"
               style="fill:#ffffff;fill-opacity:0.199997;fill-rule:nonzero;stroke:none;mix-blend-mode:darken"
               id="path38" />
          </g>
          <g
             transform="translate(-111.1073,222.2567)"
             id="g44">
            <path
               d="m 0,0 c -6.158,-17.143 -3.581,-36.276 1.978,-53.622 10.374,-32.367 31.116,-61.405 58.675,-81.297 27.56,-19.892 61.829,-30.452 95.787,-29.006 18.557,0.789 37.284,5.224 52.917,15.253 15.632,10.029 27.884,26.077 30.921,44.4 3.036,18.323 -4.214,38.587 -19.642,48.929 -28.702,19.24 -69.092,-0.949 -101.457,11.156 C 93.389,-34.542 79.793,-8.25 61.507,10.493 53.635,18.562 42.551,30.863 30.595,29.09 16.533,27.005 4.518,12.575 0,0"
               style="fill:#ffffff;fill-opacity:0.199997;fill-rule:nonzero;stroke:none;mix-blend-mode:darken"
               id="path42" />
          </g>
          <g
             transform="translate(548.1677,386.061)"
             id="g48">
            <path
               d="m 0,0 c -27.68,0.073 -56.539,-9.478 -74.282,-30.724 -19.802,-23.71 -22.263,-59.716 -7.797,-87.011 14.466,-27.294 44.225,-45.18 75.03,-47.477 30.806,-2.296 61.925,10.221 84.306,31.513 16.301,15.509 28.58,36.772 27.958,59.263 -0.533,19.291 -11.676,47.544 -29.228,57.703 C 55.326,-4.774 23.42,-0.062 0,0"
               style="fill:#ffffff;fill-opacity:0.199997;fill-rule:nonzero;stroke:none;mix-blend-mode:darken"
               id="path46" />
          </g>
          <g
             transform="translate(388.8927,222.2567)"
             id="g52">
            <path
               d="m 0,0 c -6.159,-17.143 -3.581,-36.276 1.978,-53.622 10.374,-32.367 31.116,-61.405 58.675,-81.297 27.56,-19.892 61.829,-30.452 95.787,-29.006 18.557,0.789 37.284,5.224 52.917,15.253 15.632,10.029 27.884,26.077 30.921,44.4 3.036,18.323 -4.214,38.587 -19.642,48.929 -28.702,19.24 -69.092,-0.949 -101.457,11.156 C 93.389,-34.542 79.793,-8.25 61.507,10.493 53.635,18.562 42.551,30.863 30.595,29.09 16.533,27.005 4.517,12.575 0,0"
               style="fill:#ffffff;fill-opacity:0.199997;fill-rule:nonzero;stroke:none;mix-blend-mode:darken"
               id="path50" />
          </g>
          <g
             transform="translate(144.9588,404.7458)"
             id="g56">
            <path
               d="M 0,0 C 7.848,6.688 14.921,10.706 24.376,14.979 33.38,15.504 42.404,12.876 50.229,8.392 58.053,3.908 64.74,-2.367 70.494,-9.311 c 6.587,-7.95 9.115,-16.166 9.357,-16.992 0.012,-0.04 -0.005,-0.082 -0.042,-0.102 -6.379,-3.586 -12.605,-7.441 -17.964,-11.287 -6.705,-1.245 -13.455,-2.25 -20.31,-2.707 -2.051,4.679 -5.144,8.898 -8.989,12.262 -1.341,1.173 -2.814,2.265 -4.526,2.757 -1.712,0.491 -3.712,0.286 -5.037,-0.905 -1.428,-1.284 -1.786,-3.453 -1.342,-5.322 0.444,-1.868 1.561,-3.499 2.722,-5.029 2.896,-3.814 6.215,-7.314 8.813,-11.337 2.08,-3.22 3.886,-9.369 4.524,-11.693 0.099,-0.36 -0.272,-0.663 -0.607,-0.501 -5.899,2.85 -12.259,4.741 -18.756,5.577 -0.562,0.073 -0.974,0.556 -0.95,1.122 0.135,3.238 -0.858,6.247 -2.436,8.763 -1.739,2.774 -4.143,5.055 -6.499,7.328 -4.91,4.739 -9.839,9.747 -12.498,16.032 -2.659,6.285 -2.569,14.199 1.962,19.302 3.043,3.428 7.693,5.145 12.272,5.338 4.579,0.192 9.115,-1.007 13.393,-2.653 17.041,-6.56 31.005,-20.693 37.36,-37.812"
               style="fill:none;stroke:#161413;stroke-opacity:1;stroke-width:2.366;stroke-linecap:butt;stroke-linejoin:miter;stroke-miterlimit:10;stroke-dasharray:none"
               id="path54" />
          </g>
          <g
             transform="translate(197.3185,364.7706)"
             id="g60">
            <path
               d="m 0,0 c 1.44,-3.108 2.299,-6.483 2.521,-9.901 0,0 -12.155,-5.781 -17.513,-10.136"
               style="fill:none;stroke:#161413;stroke-opacity:1;stroke-width:2.366;stroke-linecap:butt;stroke-linejoin:miter;stroke-miterlimit:10;stroke-dasharray:none"
               id="path58" />
          </g>
          <g
             transform="translate(161.7494,343.1097)"
             id="g64">
            <path
               d="m 0,0 c -1.378,-1.021 -2.237,-2.636 -2.6,-4.313 -0.362,-1.677 -0.268,-3.421 -0.023,-5.119 0.691,-4.805 2.616,-9.476 5.796,-13.144 3.18,-3.668 7.649,-6.276 12.464,-6.889 1.864,-0.238 3.869,-0.151 5.454,0.856 1.45,0.921 2.376,2.524 2.748,4.201 0.373,1.676 0.24,3.427 -0.069,5.117 -1.394,7.607 -6.536,14.434 -13.464,17.873 C 6.716,0.364 2.158,1.599 0,0 Z"
               style="fill:none;stroke:#161413;stroke-opacity:1;stroke-width:2.366;stroke-linecap:butt;stroke-linejoin:miter;stroke-miterlimit:10;stroke-dasharray:none"
               id="path62" />
          </g>
          <g
             transform="translate(192.0033,351.1907)"
             id="g68">
            <path
               d="m 0,0 c 2.224,-0.665 5.85,-1.517 9.998,-8.343 2.552,-4.199 2.622,-7.843 2.129,-12.282 -0.109,-0.976 -0.265,-1.936 -1.088,-2.472 -6.731,-4.387 -13.298,-8.314 -19.683,-13.191"
               style="fill:none;stroke:#161413;stroke-opacity:1;stroke-width:2.366;stroke-linecap:butt;stroke-linejoin:miter;stroke-miterlimit:10;stroke-dasharray:none"
               id="path66" />
          </g>
          <g
             transform="translate(162.0904,343.5667)"
             id="g72">
            <path
               d="M 0,0 C 2.626,1.864 5.393,3.527 8.272,4.97"
               style="fill:none;stroke:#161413;stroke-opacity:1;stroke-width:2.366;stroke-linecap:butt;stroke-linejoin:miter;stroke-miterlimit:10;stroke-dasharray:none"
               id="path70" />
          </g>
          <g
             transform="translate(249.9637,532.3043)"
             id="g76">
            <path
               d="m 0,0 c 6.688,-7.848 10.706,-14.921 14.979,-24.376 0.526,-9.003 -2.103,-18.028 -6.587,-25.852 -4.484,-7.825 -10.759,-14.512 -17.704,-20.266 -7.949,-6.587 -16.165,-9.114 -16.991,-9.357 -0.04,-0.012 -0.082,0.005 -0.102,0.042 -3.586,6.379 -7.441,12.605 -11.287,17.964 -1.245,6.705 -2.25,13.455 -2.707,20.31 4.679,2.052 8.898,5.144 12.262,8.989 1.173,1.341 2.265,2.814 2.757,4.526 0.491,1.712 0.286,3.712 -0.905,5.037 -1.284,1.428 -3.453,1.786 -5.322,1.342 -1.868,-0.444 -3.499,-1.561 -5.029,-2.722 -3.814,-2.896 -7.314,-6.215 -11.337,-8.813 -3.22,-2.08 -9.369,-3.886 -11.693,-4.524 -0.36,-0.099 -0.663,0.272 -0.501,0.607 2.85,5.899 4.741,12.259 5.577,18.756 0.073,0.562 0.556,0.974 1.122,0.951 3.238,-0.136 6.247,0.857 8.763,2.435 2.774,1.739 5.055,4.143 7.328,6.499 4.739,4.91 9.747,9.839 16.032,12.498 6.285,2.659 14.199,2.569 19.302,-1.962 3.428,-3.043 5.145,-7.693 5.338,-12.272 0.192,-4.579 -1.007,-9.115 -2.653,-13.393 -6.56,-17.041 -20.693,-31.005 -37.812,-37.36"
               style="fill:none;stroke:#161413;stroke-opacity:1;stroke-width:2.366;stroke-linecap:butt;stroke-linejoin:miter;stroke-miterlimit:10;stroke-dasharray:none"
               id="path74" />
          </g>
          <g
             transform="translate(209.9885,479.9446)"
             id="g80">
            <path
               d="m 0,0 c -3.107,-1.44 -6.483,-2.299 -9.901,-2.521 0,0 -5.781,12.155 -10.136,17.513"
               style="fill:none;stroke:#161413;stroke-opacity:1;stroke-width:2.366;stroke-linecap:butt;stroke-linejoin:miter;stroke-miterlimit:10;stroke-dasharray:none"
               id="path78" />
          </g>
          <g
             transform="translate(188.3276,515.5137)"
             id="g84">
            <path
               d="m 0,0 c -1.021,1.378 -2.636,2.237 -4.313,2.6 -1.677,0.363 -3.421,0.268 -5.119,0.024 -4.805,-0.692 -9.476,-2.617 -13.144,-5.797 -3.668,-3.18 -6.276,-7.649 -6.89,-12.464 -0.237,-1.863 -0.15,-3.869 0.857,-5.454 0.921,-1.45 2.524,-2.376 4.201,-2.748 1.676,-0.372 3.427,-0.24 5.117,0.07 7.607,1.393 14.434,6.535 17.872,13.463 C 0.363,-6.716 1.599,-2.158 0,0 Z"
               style="fill:none;stroke:#161413;stroke-opacity:1;stroke-width:2.366;stroke-linecap:butt;stroke-linejoin:miter;stroke-miterlimit:10;stroke-dasharray:none"
               id="path82" />
          </g>
          <g
             transform="translate(196.4086,485.2598)"
             id="g88">
            <path
               d="m 0,0 c -0.665,-2.224 -1.517,-5.85 -8.343,-9.998 -4.199,-2.552 -7.843,-2.622 -12.282,-2.129 -0.976,0.109 -1.936,0.265 -2.472,1.088 -4.387,6.731 -8.314,13.298 -13.191,19.683"
               style="fill:none;stroke:#161413;stroke-opacity:1;stroke-width:2.366;stroke-linecap:butt;stroke-linejoin:miter;stroke-miterlimit:10;stroke-dasharray:none"
               id="path86" />
          </g>
          <g
             transform="translate(268.4153,127.8595)"
             id="g92">
            <path
               d="M 0,0 C 5.327,2.915 10.876,5.421 16.585,7.49"
               style="fill:none;stroke:#161413;stroke-opacity:1;stroke-width:2.366;stroke-linecap:butt;stroke-linejoin:miter;stroke-miterlimit:10;stroke-dasharray:none"
               id="path90" />
          </g>
          <g
             transform="translate(284.0544,136.3155)"
             id="g96">
            <path
               d="m 0,0 c 4.669,-9.141 17.493,-25.521 17.493,-25.521 -1.63,-3.706 -1.555,-7.946 -0.9,-11.941 0.655,-3.996 1.856,-7.892 2.397,-11.904 0.338,-2.513 0.397,-5.158 -0.607,-7.486 -1.503,-3.483 -5.251,-5.66 -9.029,-6.001 -3.779,-0.341 -7.552,0.92 -10.86,2.777 -12.828,7.203 -35.329,44.583 -33.944,73.725 0.001,0.018 -0.261,0.412 -0.247,0.401 0.659,-0.505 16.422,-13.867 19.779,-16.683 0.376,-0.315 0.521,-0.821 0.379,-1.291 -1.057,-3.52 -0.517,-8.212 0.451,-11.657 1.04,-3.698 3.036,-7.074 5.438,-10.073 1.328,-1.658 3.103,-3.365 5.396,-2.629 1.146,0.367 2.015,1.293 2.482,2.402 1.031,2.45 0.333,4.985 -0.132,7.458 -1.143,6.067 -0.745,12.802 2.952,17.746"
               style="fill:none;stroke:#161413;stroke-opacity:1;stroke-width:2.366;stroke-linecap:butt;stroke-linejoin:miter;stroke-miterlimit:10;stroke-dasharray:none"
               id="path94" />
          </g>
          <g
             transform="translate(299.5005,75.6484)"
             id="g100">
            <path
               d="m 0,0 c -7.456,-4.681 -22.109,-11.251 -26.804,-13.319 -0.94,-0.414 -2.016,-0.4 -2.935,0.059 -8.267,4.121 -15.093,9.044 -21.54,15.816 -7.051,7.407 -17.274,24.046 -20.116,53.427 -0.186,1.928 -0.325,3.884 -0.078,5.8 0.069,0.534 0.376,1.005 0.84,1.279 6.274,3.704 12.674,8.158 19.696,11.709"
               style="fill:none;stroke:#161413;stroke-opacity:1;stroke-width:2.366;stroke-linecap:butt;stroke-linejoin:miter;stroke-miterlimit:10;stroke-dasharray:none"
               id="path98" />
          </g>
          <g
             transform="translate(298.0893,122.5116)"
             id="g104">
            <path
               d="m 0,0 c 2.11,-2.52 4.33,-5.124 7.341,-6.441 3.011,-1.317 7.051,-0.908 8.904,1.806 1.22,1.785 1.247,4.141 0.807,6.258 -0.574,2.758 -1.844,5.314 -3.129,7.821 -2.487,4.85 -5.145,9.735 -9.096,13.489 -2.395,2.275 -5.932,4.149 -8.893,2.686 -2.387,-1.18 -3.38,-4.09 -3.526,-6.749 C -7.984,11.733 -4.147,4.952 0,0 Z"
               style="fill:none;stroke:#161413;stroke-opacity:1;stroke-width:2.366;stroke-linecap:butt;stroke-linejoin:miter;stroke-miterlimit:10;stroke-dasharray:none"
               id="path102" />
          </g>
          <g
             transform="translate(301.7827,112.1681)"
             id="g108">
            <path
               d="M 0,0 C 4.307,0.983 8.469,2.596 12.313,4.771"
               style="fill:none;stroke:#161413;stroke-opacity:1;stroke-width:2.366;stroke-linecap:butt;stroke-linejoin:miter;stroke-miterlimit:10;stroke-dasharray:none"
               id="path106" />
          </g>
          <g
             transform="translate(273.0879,131.2867)"
             id="g112">
            <path
               d="m 0,0 c 0.064,0.038 0.095,-0.107 0.024,-0.128 -0.071,-0.021 -0.138,0.04 -0.186,0.097 -0.355,0.429 -0.644,1.967 -0.847,3.422 -0.24,1.725 0.621,3.422 2.169,4.22 6.733,3.472 13.563,6.755 20.479,9.844"
               style="fill:none;stroke:#161413;stroke-opacity:1;stroke-width:2.366;stroke-linecap:butt;stroke-linejoin:miter;stroke-miterlimit:10;stroke-dasharray:none"
               id="path110" />
          </g>
          <g
             transform="translate(349.0928,410.6184)"
             id="g116">
            <path
               d="M 0,0 C 5.192,3.149 10.625,5.899 16.236,8.22"
               style="fill:none;stroke:#161413;stroke-opacity:1;stroke-width:2.366;stroke-linecap:butt;stroke-linejoin:miter;stroke-miterlimit:10;stroke-dasharray:none"
               id="path114" />
          </g>
          <g
             transform="translate(364.3406,419.7614)"
             id="g120">
            <path
               d="m 0,0 c 5.071,-8.925 18.611,-24.718 18.611,-24.718 -1.464,-3.775 -1.201,-8.007 -0.369,-11.97 0.832,-3.962 2.205,-7.801 2.923,-11.785 0.45,-2.495 0.627,-5.136 -0.273,-7.505 -1.347,-3.547 -4.993,-5.889 -8.753,-6.397 -3.76,-0.509 -7.585,0.583 -10.972,2.292 -13.136,6.625 -37.277,42.967 -37.189,72.142 0,0.019 -0.279,0.4 -0.264,0.39 0.681,-0.475 17.022,-13.123 20.501,-15.787 0.389,-0.298 0.556,-0.797 0.436,-1.273 -0.9,-3.563 -0.152,-8.227 0.969,-11.626 1.202,-3.648 3.347,-6.932 5.88,-9.82 1.4,-1.598 3.25,-3.224 5.508,-2.387 1.128,0.417 1.955,1.381 2.372,2.51 0.922,2.493 0.112,4.994 -0.464,7.445 -1.411,6.01 -1.313,12.755 2.161,17.859"
               style="fill:none;stroke:#161413;stroke-opacity:1;stroke-width:2.366;stroke-linecap:butt;stroke-linejoin:miter;stroke-miterlimit:10;stroke-dasharray:none"
               id="path118" />
          </g>
          <g
             transform="translate(382.4686,359.841)"
             id="g124">
            <path
               d="m 0,0 c -7.241,-5.008 -21.587,-12.223 -26.185,-14.498 -0.921,-0.455 -1.996,-0.488 -2.935,-0.071 -8.442,3.749 -15.48,8.364 -22.222,14.843 -7.373,7.086 -18.326,23.254 -22.471,52.479 -0.272,1.918 -0.498,3.867 -0.337,5.791 0.046,0.537 0.332,1.021 0.783,1.315 6.103,3.979 12.299,8.714 19.156,12.573"
               style="fill:none;stroke:#161413;stroke-opacity:1;stroke-width:2.366;stroke-linecap:butt;stroke-linejoin:miter;stroke-miterlimit:10;stroke-dasharray:none"
               id="path122" />
          </g>
          <g
             transform="translate(378.9753,406.5951)"
             id="g128">
            <path
               d="m 0,0 c 2.22,-2.423 4.554,-4.926 7.62,-6.108 3.066,-1.182 7.084,-0.594 8.815,2.2 1.14,1.837 1.062,4.192 0.528,6.287 -0.696,2.73 -2.078,5.228 -3.474,7.675 -2.699,4.734 -5.572,9.497 -9.687,13.071 -2.493,2.166 -6.111,3.882 -9.003,2.288 C -7.533,24.128 -8.395,21.176 -8.423,18.514 -8.498,11.366 -4.363,4.763 0,0 Z"
               style="fill:none;stroke:#161413;stroke-opacity:1;stroke-width:2.366;stroke-linecap:butt;stroke-linejoin:miter;stroke-miterlimit:10;stroke-dasharray:none"
               id="path126" />
          </g>
          <g
             transform="translate(383.1249,396.4261)"
             id="g132">
            <path
               d="M 0,0 C 4.259,1.174 8.345,2.97 12.089,5.314"
               style="fill:none;stroke:#161413;stroke-opacity:1;stroke-width:2.366;stroke-linecap:butt;stroke-linejoin:miter;stroke-miterlimit:10;stroke-dasharray:none"
               id="path130" />
          </g>
          <g
             transform="translate(353.6085,414.25)"
             id="g136">
            <path
               d="m 0,0 c 0.062,0.041 0.099,-0.102 0.029,-0.127 -0.07,-0.024 -0.139,0.034 -0.189,0.089 -0.374,0.412 -0.732,1.936 -0.999,3.381 -0.316,1.712 0.469,3.446 1.98,4.312 6.571,3.768 13.248,7.351 20.021,10.745"
               style="fill:none;stroke:#161413;stroke-opacity:1;stroke-width:2.366;stroke-linecap:butt;stroke-linejoin:miter;stroke-miterlimit:10;stroke-dasharray:none"
               id="path134" />
          </g>
          <g
             transform="translate(-28.3602,336.264)"
             id="g140">
            <path
               d="M 0,0 C 10.207,1.087 30.092,7.199 30.092,7.199 32.969,4.35 36.955,2.902 40.92,2.084 44.885,1.265 48.953,0.992 52.893,0.06 c 2.467,-0.584 4.958,-1.475 6.772,-3.246 2.715,-2.651 3.406,-6.929 2.372,-10.579 -1.034,-3.65 -3.562,-6.722 -6.481,-9.146 -11.318,-9.399 -54.275,-17.029 -80.99,-5.304 -0.017,0.008 -0.478,-0.097 -0.463,-0.087 0.707,0.435 18.826,10.37 22.657,12.497 0.429,0.238 0.954,0.191 1.342,-0.108 2.907,-2.248 7.483,-3.423 11.046,-3.752 3.825,-0.354 7.692,0.302 11.351,1.471 2.024,0.647 4.253,1.693 4.388,4.098 0.067,1.201 -0.487,2.344 -1.355,3.177 -1.919,1.84 -4.535,2.096 -7.012,2.546 -6.074,1.105 -12.219,3.887 -15.512,9.109"
               style="fill:none;stroke:#161413;stroke-opacity:1;stroke-width:2.366;stroke-linecap:butt;stroke-linejoin:miter;stroke-miterlimit:10;stroke-dasharray:none"
               id="path138" />
          </g>
          <g
             transform="translate(33.816,328.9699)"
             id="g144">
            <path
               d="m 0,0 c 1.702,-8.638 2.592,-24.672 2.842,-29.795 0.05,-1.027 -0.349,-2.026 -1.106,-2.72 -6.807,-6.244 -13.847,-10.856 -22.479,-14.451 -9.44,-3.932 -28.636,-7.522 -57.087,0.342 -1.867,0.516 -3.744,1.086 -5.444,2.003 -0.474,0.255 -0.803,0.711 -0.893,1.243 -1.213,7.184 -3.081,14.754 -3.883,22.581"
               style="fill:none;stroke:#161413;stroke-opacity:1;stroke-width:2.366;stroke-linecap:butt;stroke-linejoin:miter;stroke-miterlimit:10;stroke-dasharray:none"
               id="path142" />
          </g>
          <g
             transform="translate(-10.447,344.4276)"
             id="g148">
            <path
               d="m 0,0 c 3.108,1.068 6.334,2.209 8.642,4.549 2.308,2.34 3.371,6.258 1.501,8.961 -1.23,1.778 -3.42,2.646 -5.555,2.993 -2.78,0.451 -5.622,0.181 -8.422,-0.122 -5.419,-0.585 -10.932,-1.319 -15.852,-3.665 -2.981,-1.422 -5.997,-4.054 -5.691,-7.342 0.248,-2.652 2.61,-4.62 5.04,-5.708 C -13.814,-3.255 -6.108,-2.099 0,0 Z"
               style="fill:none;stroke:#161413;stroke-opacity:1;stroke-width:2.366;stroke-linecap:butt;stroke-linejoin:miter;stroke-miterlimit:10;stroke-dasharray:none"
               id="path146" />
          </g>
          <g
             transform="translate(0.5332,344.1737)"
             id="g152">
            <path
               d="M 0,0 C 0.623,4.373 0.607,8.837 -0.048,13.205"
               style="fill:none;stroke:#161413;stroke-opacity:1;stroke-width:2.366;stroke-linecap:butt;stroke-linejoin:miter;stroke-miterlimit:10;stroke-dasharray:none"
               id="path150" />
          </g>
          <g
             transform="translate(399.8863,524.8629)"
             id="g156">
            <path
               d="m 0,0 c 10.129,-1.667 30.923,-1.064 30.923,-1.064 2.015,-3.511 5.473,-5.967 9.077,-7.811 3.605,-1.843 7.453,-3.188 11.004,-5.135 2.223,-1.218 4.387,-2.74 5.665,-4.93 1.912,-3.277 1.44,-7.585 -0.527,-10.829 -1.968,-3.243 -5.222,-5.532 -8.68,-7.092 -13.41,-6.051 -56.849,-1.982 -79.484,16.427 -0.014,0.011 -0.487,0.033 -0.469,0.038 0.797,0.232 20.906,4.99 25.164,6.021 0.477,0.116 0.97,-0.068 1.265,-0.461 2.205,-2.94 6.303,-5.289 9.65,-6.554 3.594,-1.358 7.496,-1.754 11.334,-1.601 2.123,0.085 4.55,0.502 5.319,2.784 0.384,1.14 0.155,2.389 -0.461,3.422 -1.36,2.285 -3.814,3.227 -6.081,4.32 C 8.137,-9.785 2.953,-5.468 1.167,0.442"
               style="fill:none;stroke:#161413;stroke-opacity:1;stroke-width:2.366;stroke-linecap:butt;stroke-linejoin:miter;stroke-miterlimit:10;stroke-dasharray:none"
               id="path154" />
          </g>
          <g
             transform="translate(457.8833,501.2953)"
             id="g160">
            <path
               d="m 0,0 c -0.657,-8.78 -4.063,-24.472 -5.185,-29.478 -0.225,-1.003 -0.875,-1.86 -1.789,-2.328 -8.222,-4.208 -16.236,-6.781 -25.513,-7.952 -10.146,-1.28 -29.605,0.365 -54.94,15.513 -1.662,0.994 -3.32,2.042 -4.715,3.378 -0.389,0.372 -0.585,0.9 -0.531,1.436 0.742,7.247 0.955,15.042 2.263,22.801"
               style="fill:none;stroke:#161413;stroke-opacity:1;stroke-width:2.366;stroke-linecap:butt;stroke-linejoin:miter;stroke-miterlimit:10;stroke-dasharray:none"
               id="path158" />
          </g>
          <g
             transform="translate(249.9637,32.3043)"
             id="g164">
            <path
               d="m 0,0 c 6.688,-7.848 10.706,-14.921 14.979,-24.377 0.526,-9.002 -2.103,-18.027 -6.587,-25.852 -4.484,-7.824 -10.759,-14.512 -17.704,-20.265 -7.949,-6.587 -16.165,-9.115 -16.991,-9.358 -0.04,-0.011 -0.082,0.006 -0.102,0.043 -3.586,6.379 -7.441,12.605 -11.287,17.964 -1.245,6.705 -2.25,13.455 -2.707,20.31 4.679,2.051 8.898,5.144 12.262,8.989 1.173,1.341 2.265,2.814 2.757,4.526 0.491,1.712 0.286,3.712 -0.905,5.037 -1.284,1.428 -3.453,1.786 -5.322,1.342 -1.868,-0.444 -3.499,-1.561 -5.029,-2.722 -3.814,-2.896 -7.314,-6.215 -11.337,-8.813 -3.22,-2.08 -9.369,-3.886 -11.693,-4.524 -0.36,-0.099 -0.663,0.271 -0.501,0.607 2.85,5.899 4.741,12.259 5.577,18.756 0.073,0.562 0.556,0.974 1.122,0.95 3.238,-0.135 6.247,0.858 8.763,2.436 2.774,1.739 5.055,4.143 7.328,6.499 4.739,4.91 9.747,9.839 16.032,12.498 6.285,2.659 14.199,2.569 19.302,-1.962 3.428,-3.043 5.145,-7.693 5.338,-12.272 0.192,-4.579 -1.007,-9.115 -2.653,-13.393 -6.56,-17.041 -20.693,-31.005 -37.812,-37.36"
               style="fill:none;stroke:#161413;stroke-opacity:1;stroke-width:2.366;stroke-linecap:butt;stroke-linejoin:miter;stroke-miterlimit:10;stroke-dasharray:none"
               id="path162" />
          </g>
          <g
             transform="translate(188.3276,15.5137)"
             id="g168">
            <path
               d="m 0,0 c -1.021,1.378 -2.636,2.237 -4.313,2.6 -1.677,0.362 -3.421,0.268 -5.119,0.024 -4.805,-0.692 -9.476,-2.617 -13.144,-5.797 -3.668,-3.18 -6.276,-7.649 -6.89,-12.464 -0.237,-1.864 -0.15,-3.869 0.857,-5.454 0.921,-1.45 2.524,-2.376 4.201,-2.748 1.676,-0.373 3.427,-0.24 5.117,0.069 7.607,1.394 14.434,6.536 17.872,13.464 C 0.363,-6.716 1.599,-2.158 0,0 Z"
               style="fill:none;stroke:#161413;stroke-opacity:1;stroke-width:2.366;stroke-linecap:butt;stroke-linejoin:miter;stroke-miterlimit:10;stroke-dasharray:none"
               id="path166" />
          </g>
          <g
             transform="translate(188.7846,15.1727)"
             id="g172">
            <path
               d="M 0,0 C 1.864,-2.625 3.527,-5.393 4.97,-8.272"
               style="fill:none;stroke:#161413;stroke-opacity:1;stroke-width:2.366;stroke-linecap:butt;stroke-linejoin:miter;stroke-miterlimit:10;stroke-dasharray:none"
               id="path170" />
          </g>
          <g
             transform="translate(397.4122,7.257)"
             id="g176">
            <path
               d="M 0,0 C 0.815,6.017 2.091,11.971 3.813,17.794"
               style="fill:none;stroke:#161413;stroke-opacity:1;stroke-width:2.366;stroke-linecap:butt;stroke-linejoin:miter;stroke-miterlimit:10;stroke-dasharray:none"
               id="path174" />
          </g>
          <g
             transform="translate(399.8863,24.8629)"
             id="g180">
            <path
               d="m 0,0 c 10.129,-1.667 30.923,-1.064 30.923,-1.064 2.015,-3.511 5.473,-5.967 9.077,-7.81 3.605,-1.844 7.453,-3.189 11.004,-5.136 2.223,-1.218 4.387,-2.74 5.665,-4.93 1.912,-3.277 1.44,-7.585 -0.527,-10.829 -1.968,-3.243 -5.222,-5.532 -8.68,-7.092 -13.41,-6.051 -56.849,-1.982 -79.484,16.427 -0.014,0.011 -0.487,0.033 -0.469,0.039 0.797,0.231 20.906,4.989 25.164,6.02 0.477,0.116 0.97,-0.068 1.265,-0.46 2.205,-2.941 6.303,-5.29 9.65,-6.555 3.594,-1.358 7.496,-1.754 11.334,-1.601 2.123,0.085 4.55,0.502 5.319,2.784 0.384,1.14 0.155,2.389 -0.461,3.422 -1.36,2.285 -3.814,3.227 -6.081,4.32 C 8.137,-9.785 2.953,-5.468 1.167,0.442"
               style="fill:none;stroke:#161413;stroke-opacity:1;stroke-width:2.366;stroke-linecap:butt;stroke-linejoin:miter;stroke-miterlimit:10;stroke-dasharray:none"
               id="path178" />
          </g>
          <g
             transform="translate(457.8833,1.2953)"
             id="g184">
            <path
               d="m 0,0 c -0.657,-8.78 -4.063,-24.472 -5.185,-29.478 -0.225,-1.003 -0.875,-1.86 -1.789,-2.328 -8.222,-4.208 -16.236,-6.781 -25.513,-7.952 -10.146,-1.28 -29.605,0.365 -54.94,15.513 -1.662,0.994 -3.32,2.042 -4.715,3.378 -0.389,0.372 -0.585,0.9 -0.531,1.436 0.742,7.247 0.955,15.042 2.263,22.801"
               style="fill:none;stroke:#161413;stroke-opacity:1;stroke-width:2.366;stroke-linecap:butt;stroke-linejoin:miter;stroke-miterlimit:10;stroke-dasharray:none"
               id="path182" />
          </g>
          <g
             transform="translate(419.3255,27.9683)"
             id="g188">
            <path
               d="m 0,0 c 3.28,0.203 6.694,0.445 9.54,2.087 2.847,1.641 4.915,5.136 3.831,8.239 -0.713,2.041 -2.594,3.46 -4.559,4.362 -2.56,1.175 -5.372,1.67 -8.152,2.123 -5.379,0.876 -10.889,1.635 -16.255,0.682 -3.252,-0.577 -6.86,-2.312 -7.439,-5.564 -0.466,-2.621 1.287,-5.147 3.34,-6.842 C -14.182,0.536 -6.447,-0.399 0,0 Z"
               style="fill:none;stroke:#161413;stroke-opacity:1;stroke-width:2.366;stroke-linecap:butt;stroke-linejoin:miter;stroke-miterlimit:10;stroke-dasharray:none"
               id="path186" />
          </g>
          <g
             transform="translate(429.8427,24.8033)"
             id="g192">
            <path
               d="M 0,0 C 1.764,4.05 2.936,8.357 3.466,12.742"
               style="fill:none;stroke:#161413;stroke-opacity:1;stroke-width:2.366;stroke-linecap:butt;stroke-linejoin:miter;stroke-miterlimit:10;stroke-dasharray:none"
               id="path190" />
          </g>
          <g
             transform="translate(397.4264,13.0517)"
             id="g196">
            <path
               d="M 0,0 C 0.007,0.074 0.142,0.013 0.117,-0.057 0.092,-0.127 0.003,-0.144 -0.071,-0.148 -0.627,-0.18 -2.037,0.5 -3.328,1.2 c -1.531,0.831 -2.386,2.531 -2.11,4.251 1.201,7.479 2.611,14.924 4.229,22.324"
               style="fill:none;stroke:#161413;stroke-opacity:1;stroke-width:2.366;stroke-linecap:butt;stroke-linejoin:miter;stroke-miterlimit:10;stroke-dasharray:none"
               id="path194" />
          </g>
          <g
             transform="translate(70.175,221.6899)"
             id="g200">
            <path
               d="m 0,0 c -7.34,6.898 -14.968,13.489 -21.211,19.866 -6.674,-0.577 -13.416,-2.719 -18.365,-7.233 -4.949,-4.514 -7.768,-11.678 -5.973,-18.132 0.166,-0.595 0.418,-1.241 0.975,-1.508"
               style="fill:none;stroke:#161413;stroke-opacity:1;stroke-width:2.366;stroke-linecap:butt;stroke-linejoin:miter;stroke-miterlimit:10;stroke-dasharray:none"
               id="path198" />
          </g>
          <g
             transform="translate(24.8031,215.162)"
             id="g204">
            <path
               d="M 0,0 C 4.868,-4.904 9.655,-9.889 14.357,-14.952"
               style="fill:none;stroke:#161413;stroke-opacity:1;stroke-width:2.366;stroke-linecap:butt;stroke-linejoin:miter;stroke-miterlimit:10;stroke-dasharray:none"
               id="path202" />
          </g>
          <g
             transform="translate(69.8732,221.8207)"
             id="g208">
            <path
               d="m 0,0 c -5.203,2.753 -11.705,0.829 -16.692,-2.298 -5.362,-3.363 -9.9,-8.102 -12.746,-13.755 -0.809,-1.606 -1.493,-3.447 -0.979,-5.171 0.486,-1.629 1.961,-2.792 3.53,-3.447 4.734,-1.977 10.232,-0.122 14.545,2.656 3.675,2.368 6.918,5.403 9.523,8.914 2.079,2.803 3.793,6.048 3.918,9.536 C 1.174,-1.459 0.197,1.097 0,0 Z"
               style="fill:none;stroke:#161413;stroke-opacity:1;stroke-width:2.366;stroke-linecap:butt;stroke-linejoin:miter;stroke-miterlimit:10;stroke-dasharray:none"
               id="path206" />
          </g>
          <g
             transform="translate(49.5916,252.9061)"
             id="g212">
            <path
               d="M 0,0 C 5.811,-6.748 11.622,-13.497 17.433,-20.245"
               style="fill:none;stroke:#161413;stroke-opacity:1;stroke-width:2.366;stroke-linecap:butt;stroke-linejoin:miter;stroke-miterlimit:10;stroke-dasharray:none"
               id="path210" />
          </g>
          <g
             transform="translate(95.9943,257.6717)"
             id="g216">
            <path
               d="M 0,0 C 3.228,-2.323 6.086,-5.158 8.436,-8.366"
               style="fill:none;stroke:#161413;stroke-opacity:1;stroke-width:2.366;stroke-linecap:butt;stroke-linejoin:miter;stroke-miterlimit:10;stroke-dasharray:none"
               id="path214" />
          </g>
          <g
             transform="translate(66.5576,232.85)"
             id="g220">
            <path
               d="m 0,0 c 1.265,1.076 2.012,2.629 2.664,4.157 3.493,8.195 5.286,17.1 9.488,24.955 5.241,9.795 14.22,17.529 24.683,21.262 5.845,2.085 12.77,2.815 17.923,-0.643 14.129,-9.481 4.27,-25.328 1.713,-30.837 -0.117,-0.251 -0.349,-0.423 -0.623,-0.463 -2.228,-0.325 -12.314,-1.782 -17.83,-2.344 -0.355,-0.036 -0.599,0.335 -0.439,0.655 0.875,1.749 1.514,3.616 1.894,5.535 0.19,0.958 0.303,2.006 -0.163,2.863 -0.493,0.907 -1.522,1.386 -2.523,1.636 -4.708,1.177 -10.066,-1.978 -11.321,-6.666 -0.461,-1.725 -0.42,-3.537 -0.544,-5.319 -0.446,-6.412 -3.168,-12.63 -7.454,-17.51 -1.42,-1.616 -3.713,-2.15 -5.72,-1.376 L 0.163,0.375"
               style="fill:none;stroke:#161413;stroke-opacity:1;stroke-width:2.366;stroke-linecap:butt;stroke-linejoin:miter;stroke-miterlimit:10;stroke-dasharray:none"
               id="path218" />
          </g>
          <g
             transform="translate(125.0883,279.0941)"
             id="g224">
            <path
               d="m 0,0 c -5.037,5.991 -12.142,14.002 -17.737,19.476 -1.308,1.281 -2.675,2.575 -4.371,3.263 -1.764,0.716 -3.73,0.712 -5.63,0.594 -9.02,-0.559 -17.924,-3.523 -25.291,-8.758 -7.368,-5.235 -13.144,-12.76 -15.985,-21.339 -2.29,-6.915 -2.766,-14.571 -6.708,-20.696"
               style="fill:none;stroke:#161413;stroke-opacity:1;stroke-width:2.366;stroke-linecap:butt;stroke-linejoin:miter;stroke-miterlimit:10;stroke-dasharray:none"
               id="path222" />
          </g>
          <g
             transform="translate(5.1832,447.3071)"
             id="g228">
            <path
               d="m 0,0 c 5.793,8.24 11.242,16.722 16.673,23.803 -1.514,6.525 -4.585,12.898 -9.753,17.16 -5.168,4.262 -12.658,6.042 -18.794,3.354 -0.566,-0.248 -1.169,-0.59 -1.355,-1.179"
               style="fill:none;stroke:#161413;stroke-opacity:1;stroke-width:2.366;stroke-linecap:butt;stroke-linejoin:miter;stroke-miterlimit:10;stroke-dasharray:none"
               id="path226" />
          </g>
          <g
             transform="translate(5.2701,447.6243)"
             id="g232">
            <path
               d="m 0,0 c 1.991,5.54 -0.831,11.704 -4.632,16.2 -4.085,4.834 -9.418,8.658 -15.416,10.677 -1.704,0.574 -3.623,0.991 -5.257,0.239 -1.545,-0.71 -2.487,-2.335 -2.914,-3.981 -1.289,-4.966 1.324,-10.147 4.683,-14.024 2.862,-3.304 6.325,-6.086 10.168,-8.17 3.069,-1.662 6.523,-2.901 9.994,-2.532 C -1.278,-1.368 1.114,-0.04 0,0 Z"
               style="fill:none;stroke:#161413;stroke-opacity:1;stroke-width:2.366;stroke-linecap:butt;stroke-linejoin:miter;stroke-miterlimit:10;stroke-dasharray:none"
               id="path230" />
          </g>
          <g
             transform="translate(33.0774,476.9523)"
             id="g236">
            <path
               d="M 0,0 C -5.185,-7.241 -10.369,-14.482 -15.554,-21.722"
               style="fill:none;stroke:#161413;stroke-opacity:1;stroke-width:2.366;stroke-linecap:butt;stroke-linejoin:miter;stroke-miterlimit:10;stroke-dasharray:none"
               id="path234" />
          </g>
          <g
             transform="translate(48.6711,432.9891)"
             id="g240">
            <path
               d="M 0,0 C -1.494,-3.685 -3.574,-7.133 -6.136,-10.173"
               style="fill:none;stroke:#161413;stroke-opacity:1;stroke-width:2.366;stroke-linecap:butt;stroke-linejoin:miter;stroke-miterlimit:10;stroke-dasharray:none"
               id="path238" />
          </g>
          <g
             transform="translate(17.5974,455.7282)"
             id="g244">
            <path
               d="m 0,0 c 1.345,-0.975 3.03,-1.334 4.668,-1.606 8.789,-1.458 17.866,-1.096 26.491,-3.324 10.756,-2.779 20.393,-9.676 26.492,-18.961 3.407,-5.187 5.752,-11.744 3.609,-17.568 -5.874,-15.969 -23.602,-10.133 -29.559,-8.949 -0.272,0.054 -0.493,0.239 -0.597,0.496 -0.842,2.088 -4.641,11.544 -6.49,16.771 -0.12,0.337 0.184,0.661 0.532,0.581 1.907,-0.436 3.872,-0.616 5.826,-0.533 0.976,0.042 2.021,0.18 2.744,0.836 0.765,0.693 0.986,1.806 0.993,2.838 0.032,4.853 -4.3,9.313 -9.151,9.425 -1.786,0.041 -3.537,-0.427 -5.298,-0.728 -6.336,-1.081 -13.021,0.094 -18.775,3.107 -1.906,0.997 -2.966,3.099 -2.688,5.232 L 0.402,-0.07"
               style="fill:none;stroke:#161413;stroke-opacity:1;stroke-width:2.366;stroke-linecap:butt;stroke-linejoin:miter;stroke-miterlimit:10;stroke-dasharray:none"
               id="path242" />
          </g>
          <g
             transform="translate(76.3606,409.7799)"
             id="g248">
            <path
               d="m 0,0 c 4.631,6.31 10.737,15.107 14.735,21.836 0.934,1.574 1.869,3.208 2.137,5.019 0.279,1.883 -0.189,3.792 -0.753,5.611 -2.674,8.632 -7.658,16.584 -14.485,22.506 -6.828,5.921 -15.504,9.756 -24.512,10.49 -7.26,0.592 -14.812,-0.755 -21.695,1.629"
               style="fill:none;stroke:#161413;stroke-opacity:1;stroke-width:2.366;stroke-linecap:butt;stroke-linejoin:miter;stroke-miterlimit:10;stroke-dasharray:none"
               id="path246" />
          </g>
          <g
             transform="translate(366.8432,178.1191)"
             id="g252">
            <path
               d="m 0,0 c 7.848,6.688 14.921,10.706 24.376,14.979 9.003,0.526 18.028,-2.103 25.852,-6.587 7.825,-4.484 14.512,-10.759 20.266,-17.703 6.587,-7.95 9.114,-16.166 9.357,-16.992 0.012,-0.04 -0.005,-0.082 -0.042,-0.102 -6.379,-3.586 -12.605,-7.441 -17.964,-11.287 -6.705,-1.245 -13.455,-2.25 -20.31,-2.707 -2.052,4.679 -5.144,8.898 -8.989,12.262 -1.341,1.173 -2.814,2.265 -4.526,2.757 -1.712,0.491 -3.712,0.286 -5.037,-0.905 -1.428,-1.283 -1.786,-3.453 -1.342,-5.322 0.444,-1.868 1.561,-3.499 2.722,-5.029 2.896,-3.814 6.215,-7.314 8.813,-11.337 2.08,-3.22 3.886,-9.369 4.524,-11.693 0.099,-0.36 -0.272,-0.663 -0.607,-0.501 -5.899,2.85 -12.259,4.742 -18.756,5.577 -0.562,0.073 -0.974,0.557 -0.951,1.122 0.136,3.238 -0.857,6.247 -2.435,8.763 -1.739,2.774 -4.143,5.055 -6.499,7.328 -4.91,4.74 -9.839,9.747 -12.498,16.032 -2.659,6.285 -2.569,14.199 1.962,19.302 3.043,3.428 7.692,5.145 12.272,5.338 4.579,0.193 9.115,-1.007 13.393,-2.653 17.041,-6.56 31.005,-20.693 37.36,-37.812"
               style="fill:none;stroke:#161413;stroke-opacity:1;stroke-width:2.366;stroke-linecap:butt;stroke-linejoin:miter;stroke-miterlimit:10;stroke-dasharray:none"
               id="path250" />
          </g>
          <g
             transform="translate(419.2028,138.144)"
             id="g256">
            <path
               d="m 0,0 c 1.44,-3.107 2.299,-6.483 2.521,-9.901 0,0 -12.155,-5.781 -17.513,-10.136"
               style="fill:none;stroke:#161413;stroke-opacity:1;stroke-width:2.366;stroke-linecap:butt;stroke-linejoin:miter;stroke-miterlimit:10;stroke-dasharray:none"
               id="path254" />
          </g>
          <g
             transform="translate(383.6338,116.483)"
             id="g260">
            <path
               d="m 0,0 c -1.379,-1.021 -2.237,-2.636 -2.6,-4.313 -0.362,-1.677 -0.268,-3.421 -0.024,-5.119 0.692,-4.805 2.617,-9.476 5.797,-13.144 3.18,-3.668 7.649,-6.276 12.464,-6.889 1.863,-0.238 3.869,-0.151 5.454,0.856 1.45,0.921 2.376,2.524 2.748,4.201 0.372,1.676 0.24,3.428 -0.07,5.117 -1.393,7.607 -6.535,14.434 -13.463,17.872 C 6.716,0.364 2.158,1.599 0,0 Z"
               style="fill:none;stroke:#161413;stroke-opacity:1;stroke-width:2.366;stroke-linecap:butt;stroke-linejoin:miter;stroke-miterlimit:10;stroke-dasharray:none"
               id="path258" />
          </g>
          <g
             transform="translate(413.8877,124.564)"
             id="g264">
            <path
               d="m 0,0 c 2.224,-0.665 5.85,-1.517 9.998,-8.343 2.552,-4.199 2.622,-7.843 2.129,-12.282 -0.109,-0.975 -0.265,-1.936 -1.088,-2.472 -6.731,-4.386 -13.298,-8.314 -19.683,-13.191"
               style="fill:none;stroke:#161413;stroke-opacity:1;stroke-width:2.366;stroke-linecap:butt;stroke-linejoin:miter;stroke-miterlimit:10;stroke-dasharray:none"
               id="path262" />
          </g>
          <g
             transform="translate(383.9747,116.94)"
             id="g268">
            <path
               d="M 0,0 C 2.625,1.864 5.393,3.527 8.272,4.97"
               style="fill:none;stroke:#161413;stroke-opacity:1;stroke-width:2.366;stroke-linecap:butt;stroke-linejoin:miter;stroke-miterlimit:10;stroke-dasharray:none"
               id="path266" />
          </g>
          <g
             transform="translate(151.7221,95.3625)"
             id="g272">
            <path
               d="m 0,0 c -10.223,-1.343 -18.344,-0.868 -28.603,0.689 -7.84,4.456 -13.983,11.571 -18.11,19.589 -4.127,8.019 -6.325,16.922 -7.377,25.879 -1.203,10.254 1.145,18.523 1.39,19.347 0.012,0.04 0.05,0.066 0.092,0.063 7.304,-0.46 14.625,-0.612 21.213,-0.3 6.304,-2.602 12.515,-5.43 18.516,-8.775 -0.824,-5.042 -0.524,-10.265 0.873,-15.179 0.487,-1.714 1.129,-3.431 2.298,-4.775 1.17,-1.344 2.96,-2.259 4.719,-1.98 1.897,0.3 3.377,1.926 4.021,3.735 0.644,1.81 0.594,3.786 0.451,5.701 -0.355,4.776 -1.237,9.518 -1.229,14.307 0.007,3.833 1.835,9.975 2.564,12.273 0.113,0.356 0.589,0.409 0.782,0.09 C 5,65.064 9.308,60.017 14.305,55.782 14.738,55.416 14.82,54.786 14.493,54.324 12.618,51.681 11.815,48.615 11.77,45.645 11.721,42.372 12.497,39.15 13.237,35.962 14.78,29.314 16.192,22.431 15.005,15.711 13.818,8.99 9.438,2.398 2.86,0.58 -1.558,-0.641 -6.394,0.447 -10.341,2.777 c -3.948,2.329 -7.102,5.802 -9.795,9.511 -10.732,14.774 -14.763,34.228 -10.784,52.05"
               style="fill:none;stroke:#161413;stroke-opacity:1;stroke-width:2.366;stroke-linecap:butt;stroke-linejoin:miter;stroke-miterlimit:10;stroke-dasharray:none"
               id="path270" />
          </g>
          <g
             transform="translate(129.5286,157.3866)"
             id="g276">
            <path
               d="m 0,0 c 0.482,3.391 1.597,6.691 3.27,9.679 0,0 13.344,-1.76 20.209,-1.019"
               style="fill:none;stroke:#161413;stroke-opacity:1;stroke-width:2.366;stroke-linecap:butt;stroke-linejoin:miter;stroke-miterlimit:10;stroke-dasharray:none"
               id="path274" />
          </g>
          <g
             transform="translate(171.1577,156.2164)"
             id="g280">
            <path
               d="m 0,0 c 1.712,0.107 3.311,0.995 4.527,2.205 1.217,1.21 2.086,2.725 2.805,4.283 2.033,4.408 2.959,9.375 2.285,14.182 -0.673,4.807 -3.005,9.427 -6.712,12.561 -1.434,1.213 -3.164,2.23 -5.043,2.248 -1.717,0.016 -3.366,-0.826 -4.59,-2.031 C -7.952,32.244 -8.794,30.702 -9.453,29.117 -12.422,21.975 -11.82,13.45 -7.877,6.796 -5.834,3.348 -2.681,-0.168 0,0 Z"
               style="fill:none;stroke:#161413;stroke-opacity:1;stroke-width:2.366;stroke-linecap:butt;stroke-linejoin:miter;stroke-miterlimit:10;stroke-dasharray:none"
               id="path278" />
          </g>
          <g
             transform="translate(141.3751,165.891)"
             id="g284">
            <path
               d="m 0,0 c -1.505,1.768 -4.084,4.455 -3.852,12.439 0.142,4.912 2.066,8.008 4.894,11.464 0.622,0.76 1.276,1.481 2.258,1.483 8.034,0.02 15.681,-0.256 23.691,0.363"
               style="fill:none;stroke:#161413;stroke-opacity:1;stroke-width:2.366;stroke-linecap:butt;stroke-linejoin:miter;stroke-miterlimit:10;stroke-dasharray:none"
               id="path282" />
          </g>
          <g
             transform="translate(170.6231,156.0183)"
             id="g288">
            <path
               d="M 0,0 C -3.217,-0.136 -6.444,-0.026 -9.644,0.329"
               style="fill:none;stroke:#161413;stroke-opacity:1;stroke-width:2.366;stroke-linecap:butt;stroke-linejoin:miter;stroke-miterlimit:10;stroke-dasharray:none"
               id="path286" />
          </g>
          <g
             transform="translate(342.1898,242.7661)"
             id="g292">
            <path
               d="m 0,0 c -3.046,9.851 -3.945,17.936 -4.138,28.31 3.072,8.479 9.051,15.733 16.26,21.151 7.209,5.418 15.615,9.085 24.266,11.629 9.905,2.913 18.451,1.991 19.306,1.889 0.041,-0.005 0.073,-0.038 0.077,-0.08 0.776,-7.277 1.859,-14.519 3.277,-20.96 -1.503,-6.653 -3.245,-13.251 -5.532,-19.73 -5.109,-0.037 -10.206,-1.212 -14.815,-3.417 -1.607,-0.768 -3.192,-1.691 -4.32,-3.07 -1.127,-1.378 -1.728,-3.297 -1.157,-4.984 0.615,-1.819 2.467,-3.004 4.359,-3.335 1.892,-0.33 3.832,0.052 5.696,0.515 4.647,1.155 9.173,2.823 13.895,3.621 3.78,0.639 10.142,-0.129 12.53,-0.46 0.369,-0.052 0.502,-0.512 0.22,-0.756 -4.947,-4.294 -9.196,-9.391 -12.53,-15.03 -0.288,-0.487 -0.895,-0.675 -1.406,-0.43 -2.921,1.403 -6.078,1.678 -9.012,1.222 -3.235,-0.503 -6.28,-1.81 -9.299,-3.077 -6.293,-2.64 -12.839,-5.191 -19.664,-5.153 -6.824,0.038 -14.059,3.246 -16.959,9.424 -1.948,4.149 -1.69,9.099 -0.059,13.382 1.631,4.284 4.524,7.977 7.726,11.257 12.755,13.067 31.253,20.316 49.49,19.396"
               style="fill:none;stroke:#161413;stroke-opacity:1;stroke-width:2.366;stroke-linecap:butt;stroke-linejoin:miter;stroke-miterlimit:10;stroke-dasharray:none"
               id="path290" />
          </g>
          <g
             transform="translate(399.5904,275.0882)"
             id="g296">
            <path
               d="m 0,0 c 3.424,0.096 6.864,-0.447 10.092,-1.593 0,0 0.512,-13.45 2.398,-20.092"
               style="fill:none;stroke:#161413;stroke-opacity:1;stroke-width:2.366;stroke-linecap:butt;stroke-linejoin:miter;stroke-miterlimit:10;stroke-dasharray:none"
               id="path294" />
          </g>
          <g
             transform="translate(405.4476,233.8565)"
             id="g300">
            <path
               d="m 0,0 c 0.394,-1.67 1.539,-3.096 2.936,-4.091 1.397,-0.996 3.037,-1.597 4.694,-2.043 4.687,-1.262 9.739,-1.338 14.365,0.135 4.625,1.474 8.786,4.55 11.25,8.732 0.954,1.618 1.666,3.495 1.367,5.349 -0.273,1.695 -1.381,3.179 -2.775,4.183 -1.393,1.004 -3.054,1.574 -4.728,1.956 C 19.57,15.945 11.267,13.916 5.373,8.909 2.318,6.314 -0.617,2.614 0,0 Z"
               style="fill:none;stroke:#161413;stroke-opacity:1;stroke-width:2.366;stroke-linecap:butt;stroke-linejoin:miter;stroke-miterlimit:10;stroke-dasharray:none"
               id="path298" />
          </g>
          <g
             transform="translate(409.9684,264.843)"
             id="g304">
            <path
               d="m 0,0 c 1.489,1.781 3.703,4.776 11.613,5.892 4.865,0.687 8.241,-0.688 12.124,-2.894 0.854,-0.485 1.674,-1.008 1.842,-1.975 1.373,-7.916 2.388,-15.501 4.348,-23.292"
               style="fill:none;stroke:#161413;stroke-opacity:1;stroke-width:2.366;stroke-linecap:butt;stroke-linejoin:miter;stroke-miterlimit:10;stroke-dasharray:none"
               id="path302" />
          </g>
          <g
             transform="translate(405.1624,234.3502)"
             id="g308">
            <path
               d="M 0,0 C -0.676,3.148 -1.111,6.348 -1.3,9.562"
               style="fill:none;stroke:#161413;stroke-opacity:1;stroke-width:2.366;stroke-linecap:butt;stroke-linejoin:miter;stroke-miterlimit:10;stroke-dasharray:none"
               id="path306" />
          </g>
          <g
             transform="translate(5.1832,84.3411)"
             id="g312">
            <path
               d="m 0,0 c 5.793,8.24 11.242,16.722 16.673,23.803 -1.514,6.525 -4.585,12.898 -9.753,17.16 -5.168,4.262 -12.658,6.042 -18.794,3.354 -0.566,-0.248 -1.169,-0.589 -1.355,-1.179"
               style="fill:none;stroke:#161413;stroke-opacity:1;stroke-width:2.366;stroke-linecap:butt;stroke-linejoin:miter;stroke-miterlimit:10;stroke-dasharray:none"
               id="path310" />
          </g>
          <g
             transform="translate(5.2701,84.6584)"
             id="g316">
            <path
               d="m 0,0 c 1.991,5.54 -0.831,11.705 -4.632,16.2 -4.085,4.834 -9.418,8.658 -15.416,10.677 -1.704,0.574 -3.623,0.992 -5.257,0.24 -1.545,-0.711 -2.487,-2.336 -2.914,-3.982 -1.289,-4.966 1.324,-10.147 4.683,-14.024 2.862,-3.304 6.325,-6.086 10.168,-8.17 3.069,-1.662 6.523,-2.901 9.994,-2.532 C -1.278,-1.368 1.114,-0.04 0,0 Z"
               style="fill:none;stroke:#161413;stroke-opacity:1;stroke-width:2.366;stroke-linecap:butt;stroke-linejoin:miter;stroke-miterlimit:10;stroke-dasharray:none"
               id="path314" />
          </g>
          <g
             transform="translate(33.0774,113.9864)"
             id="g320">
            <path
               d="M 0,0 C -5.185,-7.241 -10.369,-14.481 -15.554,-21.722"
               style="fill:none;stroke:#161413;stroke-opacity:1;stroke-width:2.366;stroke-linecap:butt;stroke-linejoin:miter;stroke-miterlimit:10;stroke-dasharray:none"
               id="path318" />
          </g>
          <g
             transform="translate(48.6711,70.0232)"
             id="g324">
            <path
               d="M 0,0 C -1.494,-3.685 -3.574,-7.133 -6.136,-10.174"
               style="fill:none;stroke:#161413;stroke-opacity:1;stroke-width:2.366;stroke-linecap:butt;stroke-linejoin:miter;stroke-miterlimit:10;stroke-dasharray:none"
               id="path322" />
          </g>
          <g
             transform="translate(17.5974,92.7622)"
             id="g328">
            <path
               d="m 0,0 c 1.345,-0.975 3.03,-1.334 4.668,-1.606 8.789,-1.458 17.866,-1.096 26.491,-3.325 10.756,-2.778 20.393,-9.675 26.492,-18.96 3.407,-5.187 5.752,-11.744 3.609,-17.568 -5.874,-15.969 -23.602,-10.133 -29.559,-8.949 -0.272,0.054 -0.493,0.239 -0.597,0.496 -0.842,2.088 -4.641,11.544 -6.49,16.771 -0.12,0.337 0.184,0.661 0.532,0.581 1.907,-0.436 3.872,-0.617 5.826,-0.533 0.976,0.042 2.021,0.18 2.744,0.836 0.765,0.693 0.986,1.806 0.993,2.838 0.032,4.853 -4.3,9.313 -9.151,9.425 -1.786,0.041 -3.537,-0.427 -5.298,-0.728 -6.336,-1.081 -13.021,0.094 -18.775,3.106 -1.906,0.998 -2.966,3.1 -2.688,5.233 L 0.402,-0.07"
               style="fill:none;stroke:#161413;stroke-opacity:1;stroke-width:2.366;stroke-linecap:butt;stroke-linejoin:miter;stroke-miterlimit:10;stroke-dasharray:none"
               id="path326" />
          </g>
          <g
             transform="translate(76.3606,46.814)"
             id="g332">
            <path
               d="m 0,0 c 4.631,6.31 10.737,15.107 14.735,21.836 0.934,1.574 1.869,3.208 2.137,5.019 0.279,1.883 -0.189,3.792 -0.753,5.61 -2.674,8.633 -7.658,16.585 -14.485,22.507 -6.828,5.922 -15.504,9.756 -24.512,10.49 -7.26,0.592 -14.812,-0.755 -21.695,1.629"
               style="fill:none;stroke:#161413;stroke-opacity:1;stroke-width:2.366;stroke-linecap:butt;stroke-linejoin:miter;stroke-miterlimit:10;stroke-dasharray:none"
               id="path330" />
          </g>
          <g
             transform="translate(473.9372,318.6343)"
             id="g336">
            <path
               d="M 0,0 C -0.815,6.017 -1.168,12.096 -1.056,18.167"
               style="fill:none;stroke:#161413;stroke-opacity:1;stroke-width:2.366;stroke-linecap:butt;stroke-linejoin:miter;stroke-miterlimit:10;stroke-dasharray:none"
               id="path334" />
          </g>
          <g
             transform="translate(471.6398,336.264)"
             id="g340">
            <path
               d="M 0,0 C 10.207,1.087 30.092,7.199 30.092,7.199 32.968,4.35 36.955,2.902 40.92,2.084 44.885,1.265 48.953,0.992 52.893,0.06 c 2.467,-0.584 4.958,-1.475 6.772,-3.246 2.715,-2.651 3.406,-6.929 2.372,-10.579 -1.035,-3.65 -3.562,-6.722 -6.481,-9.146 -11.318,-9.399 -54.275,-17.029 -80.99,-5.304 -0.017,0.008 -0.478,-0.097 -0.463,-0.087 0.707,0.435 18.826,10.37 22.657,12.497 0.429,0.238 0.954,0.191 1.342,-0.108 2.907,-2.248 7.482,-3.423 11.046,-3.752 3.825,-0.354 7.692,0.302 11.351,1.471 2.024,0.647 4.253,1.693 4.387,4.098 0.068,1.201 -0.486,2.344 -1.354,3.177 -1.919,1.84 -4.535,2.096 -7.012,2.546 C 10.446,-7.268 4.3,-4.486 1.008,0.736"
               style="fill:none;stroke:#161413;stroke-opacity:1;stroke-width:2.366;stroke-linecap:butt;stroke-linejoin:miter;stroke-miterlimit:10;stroke-dasharray:none"
               id="path338" />
          </g>
          <g
             transform="translate(533.816,328.9699)"
             id="g344">
            <path
               d="m 0,0 c 1.702,-8.638 2.592,-24.672 2.842,-29.795 0.05,-1.027 -0.349,-2.026 -1.106,-2.72 -6.807,-6.244 -13.847,-10.856 -22.479,-14.451 -9.44,-3.932 -28.636,-7.522 -57.087,0.342 -1.867,0.516 -3.744,1.086 -5.444,2.003 -0.474,0.255 -0.803,0.711 -0.893,1.243 -1.213,7.184 -3.081,14.754 -3.883,22.581"
               style="fill:none;stroke:#161413;stroke-opacity:1;stroke-width:2.366;stroke-linecap:butt;stroke-linejoin:miter;stroke-miterlimit:10;stroke-dasharray:none"
               id="path342" />
          </g>
          <g
             transform="translate(489.553,344.4276)"
             id="g348">
            <path
               d="m 0,0 c 3.108,1.068 6.334,2.209 8.642,4.549 2.308,2.34 3.371,6.258 1.501,8.961 -1.23,1.778 -3.42,2.646 -5.555,2.993 -2.78,0.451 -5.622,0.181 -8.422,-0.122 -5.419,-0.585 -10.932,-1.319 -15.852,-3.665 -2.981,-1.422 -5.998,-4.054 -5.691,-7.342 0.248,-2.652 2.61,-4.62 5.04,-5.708 C -13.814,-3.255 -6.108,-2.099 0,0 Z"
               style="fill:none;stroke:#161413;stroke-opacity:1;stroke-width:2.366;stroke-linecap:butt;stroke-linejoin:miter;stroke-miterlimit:10;stroke-dasharray:none"
               id="path346" />
          </g>
          <g
             transform="translate(500.5332,344.1737)"
             id="g352">
            <path
               d="M 0,0 C 0.623,4.373 0.607,8.837 -0.047,13.205"
               style="fill:none;stroke:#161413;stroke-opacity:1;stroke-width:2.366;stroke-linecap:butt;stroke-linejoin:miter;stroke-miterlimit:10;stroke-dasharray:none"
               id="path350" />
          </g>
          <g
             transform="translate(472.4098,324.2241)"
             id="g356">
            <path
               d="M 0,0 C -0.013,0.073 0.133,0.05 0.128,-0.024 0.122,-0.098 0.041,-0.138 -0.029,-0.162 -0.556,-0.34 -2.097,-0.06 -3.527,0.272 -5.224,0.665 -6.5,2.077 -6.692,3.808 -7.523,11.337 -8.144,18.89 -8.552,26.453"
               style="fill:none;stroke:#161413;stroke-opacity:1;stroke-width:2.366;stroke-linecap:butt;stroke-linejoin:miter;stroke-miterlimit:10;stroke-dasharray:none"
               id="path354" />
          </g>
          <g
             transform="translate(505.1832,447.3071)"
             id="g360">
            <path
               d="m 0,0 c 5.793,8.24 11.241,16.722 16.673,23.803 -1.514,6.525 -4.585,12.898 -9.753,17.16 -5.168,4.262 -12.658,6.042 -18.794,3.354 -0.566,-0.248 -1.169,-0.59 -1.355,-1.179"
               style="fill:none;stroke:#161413;stroke-opacity:1;stroke-width:2.366;stroke-linecap:butt;stroke-linejoin:miter;stroke-miterlimit:10;stroke-dasharray:none"
               id="path358" />
          </g>
          <g
             transform="translate(492.3158,491.3031)"
             id="g364">
            <path
               d="M 0,0 C -4.168,-5.512 -8.427,-10.954 -12.776,-16.324"
               style="fill:none;stroke:#161413;stroke-opacity:1;stroke-width:2.366;stroke-linecap:butt;stroke-linejoin:miter;stroke-miterlimit:10;stroke-dasharray:none"
               id="path362" />
          </g>
          <g
             transform="translate(505.2701,447.6243)"
             id="g368">
            <path
               d="m 0,0 c 1.991,5.54 -0.831,11.704 -4.631,16.2 -4.086,4.834 -9.419,8.658 -15.417,10.677 -1.704,0.574 -3.623,0.991 -5.257,0.239 -1.545,-0.71 -2.487,-2.335 -2.914,-3.981 -1.289,-4.966 1.324,-10.147 4.683,-14.024 2.862,-3.304 6.325,-6.086 10.168,-8.17 3.069,-1.662 6.523,-2.901 9.994,-2.532 C -1.278,-1.368 1.114,-0.04 0,0 Z"
               style="fill:none;stroke:#161413;stroke-opacity:1;stroke-width:2.366;stroke-linecap:butt;stroke-linejoin:miter;stroke-miterlimit:10;stroke-dasharray:none"
               id="path366" />
          </g>
          <g
             transform="translate(505.1832,84.3411)"
             id="g372">
            <path
               d="m 0,0 c 5.793,8.24 11.241,16.722 16.673,23.803 -1.514,6.525 -4.585,12.898 -9.753,17.16 -5.168,4.262 -12.658,6.042 -18.794,3.354 -0.566,-0.248 -1.169,-0.589 -1.355,-1.179"
               style="fill:none;stroke:#161413;stroke-opacity:1;stroke-width:2.366;stroke-linecap:butt;stroke-linejoin:miter;stroke-miterlimit:10;stroke-dasharray:none"
               id="path370" />
          </g>
          <g
             transform="translate(492.3158,128.3372)"
             id="g376">
            <path
               d="M 0,0 C -4.168,-5.512 -8.427,-10.954 -12.776,-16.324"
               style="fill:none;stroke:#161413;stroke-opacity:1;stroke-width:2.366;stroke-linecap:butt;stroke-linejoin:miter;stroke-miterlimit:10;stroke-dasharray:none"
               id="path374" />
          </g>
          <g
             transform="translate(505.2701,84.6584)"
             id="g380">
            <path
               d="m 0,0 c 1.991,5.54 -0.831,11.705 -4.631,16.2 -4.086,4.834 -9.419,8.658 -15.417,10.677 -1.704,0.574 -3.623,0.992 -5.257,0.24 -1.545,-0.711 -2.487,-2.336 -2.914,-3.982 -1.289,-4.966 1.324,-10.147 4.683,-14.024 2.862,-3.304 6.325,-6.086 10.168,-8.17 3.069,-1.662 6.523,-2.901 9.994,-2.532 C -1.278,-1.368 1.114,-0.04 0,0 Z"
               style="fill:none;stroke:#161413;stroke-opacity:1;stroke-width:2.366;stroke-linecap:butt;stroke-linejoin:miter;stroke-miterlimit:10;stroke-dasharray:none"
               id="path378" />
          </g>
          <g
             transform="translate(249.394,288.7648)"
             id="g384">
            <path
               d="m 0,0 c 7.364,-6.872 15.015,-13.437 21.281,-19.791 6.672,0.601 13.406,2.766 18.339,7.298 4.933,4.531 7.727,11.705 5.909,18.153 -0.167,0.595 -0.422,1.239 -0.98,1.504"
               style="fill:none;stroke:#161413;stroke-opacity:1;stroke-width:2.366;stroke-linecap:butt;stroke-linejoin:miter;stroke-miterlimit:10;stroke-dasharray:none"
               id="path382" />
          </g>
          <g
             transform="translate(294.7426,295.4527)"
             id="g388">
            <path
               d="M 0,0 C -4.886,4.887 -9.69,9.855 -14.41,14.901"
               style="fill:none;stroke:#161413;stroke-opacity:1;stroke-width:2.366;stroke-linecap:butt;stroke-linejoin:miter;stroke-miterlimit:10;stroke-dasharray:none"
               id="path386" />
          </g>
          <g
             transform="translate(249.6963,288.635)"
             id="g392">
            <path
               d="m 0,0 c 5.213,-2.734 11.708,-0.788 16.684,2.357 5.35,3.381 9.871,8.137 12.697,13.8 0.804,1.609 1.481,3.452 0.961,5.174 -0.492,1.628 -1.971,2.785 -3.543,3.435 -4.741,1.96 -10.232,0.085 -14.535,-2.708 C 8.598,19.678 5.365,16.631 2.773,13.111 0.703,10.301 -0.999,7.049 -1.111,3.562 -1.179,1.455 -0.193,-1.098 0,0 Z"
               style="fill:none;stroke:#161413;stroke-opacity:1;stroke-width:2.366;stroke-linecap:butt;stroke-linejoin:miter;stroke-miterlimit:10;stroke-dasharray:none"
               id="path390" />
          </g>
          <g
             transform="translate(274.9168,257.0549)"
             id="g396">
            <path
               d="M 0,0 C -6.458,6.132 -12.916,12.264 -19.374,18.396"
               style="fill:none;stroke:#161413;stroke-opacity:1;stroke-width:2.366;stroke-linecap:butt;stroke-linejoin:miter;stroke-miterlimit:10;stroke-dasharray:none"
               id="path394" />
          </g>
          <g
             transform="translate(229.2255,247.6621)"
             id="g400">
            <path
               d="M 0,0 C -3.445,1.988 -6.573,4.522 -9.232,7.479"
               style="fill:none;stroke:#161413;stroke-opacity:1;stroke-width:2.366;stroke-linecap:butt;stroke-linejoin:miter;stroke-miterlimit:10;stroke-dasharray:none"
               id="path398" />
          </g>
          <g
             transform="translate(256.0259,275.3095)"
             id="g404">
            <path
               d="m 0,0 c -1.151,-1.198 -1.739,-2.817 -2.234,-4.403 -2.654,-8.504 -3.545,-17.544 -6.939,-25.781 -4.233,-10.27 -12.391,-18.866 -22.427,-23.629 -5.607,-2.66 -12.424,-4.08 -17.898,-1.157 -15.008,8.017 -6.787,24.774 -4.794,30.511 0.09,0.261 0.305,0.455 0.573,0.522 2.184,0.547 12.073,3.008 17.505,4.12 0.35,0.072 0.629,-0.273 0.502,-0.607 -0.694,-1.828 -1.143,-3.75 -1.33,-5.697 -0.092,-0.972 -0.1,-2.026 0.45,-2.833 0.582,-0.853 1.653,-1.226 2.675,-1.374 4.802,-0.7 9.816,2.976 10.595,7.766 0.286,1.763 0.064,3.563 0.009,5.348 -0.2,6.424 1.885,12.883 5.661,18.168 1.25,1.75 3.478,2.512 5.553,1.942 l 11.975,-3.285"
               style="fill:none;stroke:#161413;stroke-opacity:1;stroke-width:2.366;stroke-linecap:butt;stroke-linejoin:miter;stroke-miterlimit:10;stroke-dasharray:none"
               id="path402" />
          </g>
          <g
             transform="translate(202.4252,223.4314)"
             id="g408">
            <path
               d="m 0,0 c 5.612,-5.456 13.485,-12.715 19.6,-17.6 1.43,-1.143 2.919,-2.294 4.676,-2.809 1.827,-0.535 3.783,-0.334 5.661,-0.026 8.919,1.46 17.481,5.302 24.286,11.249 6.806,5.947 11.798,14.013 13.765,22.834 1.586,7.109 1.292,14.775 4.6,21.264"
               style="fill:none;stroke:#161413;stroke-opacity:1;stroke-width:2.366;stroke-linecap:butt;stroke-linejoin:miter;stroke-miterlimit:10;stroke-dasharray:none"
               id="path406" />
          </g>
        </g>
      </g>
    </pattern>
  </defs>
  <sodipodi:namedview
     id="namedview4"
     pagecolor="#ffffff"
     bordercolor="#000000"
     borderopacity="0.25"
     inkscape:showpageshadow="2"
     inkscape:pageopacity="0.0"
     inkscape:pagecheckerboard="0"
     inkscape:deskcolor="#d1d1d1"
     showgrid="false" />
  <g
     id="g10"
     inkscape:groupmode="layer"
     inkscape:label="Page 1"
     transform="matrix(1.3333333,0,0,-1.3333333,0,666.66667)">
    <path
       d="M 0,0 H 500 V 500 H 0 Z"
       style="fill:url(#pattern414);fill-opacity:1;fill-rule:nonzero;stroke:none"
       id="path416" />
  </g>
</svg>
