<?xml version="1.0" encoding="UTF-8" standalone="no"?>
<!-- Created with Inkscape (http://www.inkscape.org/) -->

<svg
   width="210mm"
   height="297mm"
   viewBox="0 0 210 297"
   version="1.1"
   id="svg5"
   xml:space="preserve"
   inkscape:export-filename="qli-on.svg"
   inkscape:export-xdpi="96"
   inkscape:export-ydpi="96"
   xmlns:inkscape="http://www.inkscape.org/namespaces/inkscape"
   xmlns:sodipodi="http://sodipodi.sourceforge.net/DTD/sodipodi-0.dtd"
   xmlns="http://www.w3.org/2000/svg"
   xmlns:svg="http://www.w3.org/2000/svg"><sodipodi:namedview
     id="namedview7"
     pagecolor="#ffffff"
     bordercolor="#000000"
     borderopacity="0.25"
     inkscape:showpageshadow="2"
     inkscape:pageopacity="0.0"
     inkscape:pagecheckerboard="0"
     inkscape:deskcolor="#d1d1d1"
     inkscape:document-units="mm"
     showgrid="false" /><defs
     id="defs2" /><g
     inkscape:label="Layer 1"
     inkscape:groupmode="layer"
     id="layer1"><path
       style="fill:#ff6600;stroke-width:0.385352"
       d="m 21.40322,245.92427 c -0.345949,-0.37696 -1.594971,-1.28152 -2.775596,-2.01013 -1.208109,-0.74568 -3.455497,-2.68451 -5.140536,-4.43496 -1.646668,-1.71059 -3.247048,-3.23506 -3.5563993,-3.38769 -0.699646,-0.34521 -3.731091,-5.28497 -5.505797,-8.97172 -0.822598,-1.70885 -1.376492,-3.61822 -1.449085,-4.99517 -0.105443,-2.00035 0.05206,-2.57263 1.535584,-5.57935 1.474628,-2.98869 1.845039,-3.48055 3.431124,-4.5561 3.5028763,-2.37537 11.4430303,-3.78191 16.9776383,-3.00745 6.772878,0.94772 9.188563,1.50302 13.682705,3.14518 6.130508,2.24012 8.089156,3.20535 13.550313,6.67794 3.992906,2.53881 5.599323,3.85745 10.798764,8.86428 4.207942,4.05205 7.727272,10.79597 7.90929,15.15619 0.123864,2.96714 -0.687788,5.73081 -2.250238,7.66211 -2.599925,3.21369 -4.982579,4.37885 -10.753213,5.25842 -4.869485,0.74225 -5.750946,0.70183 -14.519595,-0.66557 -1.24497,-0.19412 -3.48039,-0.71643 -4.967627,-1.16066 -3.219733,-0.96172 -16.069274,-7.01647 -16.96743,-7.99513 z m 22.209417,-56.43331 c 0.05514,-0.37378 1.898881,-13.85244 4.097194,-29.95258 2.198321,-16.10017 4.041253,-29.57922 4.095418,-29.95347 0.08751,-0.60463 0.389516,-0.53771 2.709717,0.60045 3.363873,1.65082 8.278074,3.21459 14.294632,4.55069 6.218999,1.38106 6.712857,1.48063 9.876449,1.99135 1.467622,0.23693 3.309162,0.54695 4.092305,0.68894 3.212078,0.58237 12.272983,0.9229 18.929238,0.7114 11.23472,-0.35696 22.73068,-3.23796 28.07255,-7.03526 4.88797,-3.47465 7.55226,-7.12666 8.96667,-12.29084 1.41038,-5.14954 1.26161,-10.21798 -0.43993,-14.98871 -0.73387,-2.05758 -1.62276,-4.005432 -1.97531,-4.328561 -0.35255,-0.32314 -0.91746,-1.061437 -1.25532,-1.640691 -1.08584,-1.861569 -6.32468,-7.145806 -8.71296,-8.788463 -5.32474,-3.662342 -7.54865,-4.740733 -13.9307,-6.755123 -3.36299,-1.061471 -7.32345,-2.128679 -8.80102,-2.371569 -3.36794,-0.553642 -11.995085,-1.202967 -14.123275,-1.062997 -0.88067,0.05792 -2.28364,0.07175 -3.117742,0.03075 -1.84861,-0.09089 -8.684894,0.679421 -11.948449,1.346349 -6.922969,1.414737 -18.70729,5.483635 -23.592243,8.145937 -0.883773,0.48166 -1.720348,0.819744 -1.859054,0.751307 -0.217863,-0.107495 -10.368429,-43.985964 -10.529474,-45.516402 -0.07609,-0.723071 2.386715,-2.131012 10.057923,-5.74993 7.84992,-3.703228 22.502244,-8.241062 30.661515,-9.49589 10.202634,-1.569079 19.662284,-1.996029 28.785739,-1.299212 8.39746,0.641372 12.82061,1.46062 22.33607,4.137061 1.60548,0.45158 3.89084,1.074799 5.07858,1.384936 1.19295,0.311493 6.18341,2.460145 11.14974,4.800543 7.41598,3.494798 9.5342,4.628457 12.09685,6.474149 1.70865,1.230622 4.16786,2.916326 5.46491,3.746014 11.72369,7.499316 26.60046,25.304101 34.97275,41.856013 2.53651,5.014658 5.94483,13.903269 6.78363,17.691159 1.89591,8.56157 0.47802,21.34265 -3.5897,32.35836 -1.90223,5.15135 -3.26677,7.84203 -6.3511,12.52325 -9.79432,14.86532 -22.6678,25.22942 -36.75182,29.58802 -8.02601,2.48381 -14.95186,3.38886 -20.87052,2.7273 -1.38618,-0.15494 -3.39664,-0.32472 -4.46767,-0.37731 -1.07105,-0.0526 -3.00502,-0.3774 -4.2977,-0.72184 -1.2927,-0.34444 -3.07669,-0.77109 -3.96444,-0.94811 -1.88484,-0.37584 -5.91137,-1.38206 -8.68062,-2.16923 -2.51856,-0.71594 -15.1785,-5.85299 -18.714865,-7.594 l -2.73775,-1.34857 -1.56382,1.41558 c -0.86008,0.77856 -3.01107,2.8574 -4.77995,4.61963 -1.7689,1.76222 -7.876719,7.79407 -13.572936,13.4041 l -10.35674,10.20008 -10.818377,-5.33781 c -9.993575,-4.93085 -10.810751,-5.38958 -10.718108,-6.01739 z"
       id="path318" /></g></svg>
