<?xml version="1.0" encoding="UTF-8" standalone="no"?>
<!-- Created with Inkscape (http://www.inkscape.org/) -->

<svg
   width="5mm"
   height="5mm"
   viewBox="0 0 5 5"
   version="1.1"
   id="svg478"
   inkscape:export-filename="qli-off.svg"
   inkscape:export-xdpi="96"
   inkscape:export-ydpi="96"
   xmlns:inkscape="http://www.inkscape.org/namespaces/inkscape"
   xmlns:sodipodi="http://sodipodi.sourceforge.net/DTD/sodipodi-0.dtd"
   xmlns="http://www.w3.org/2000/svg"
   xmlns:svg="http://www.w3.org/2000/svg">
  <sodipodi:namedview
     id="namedview480"
     pagecolor="#ffffff"
     bordercolor="#000000"
     borderopacity="0.25"
     inkscape:showpageshadow="2"
     inkscape:pageopacity="0.0"
     inkscape:pagecheckerboard="0"
     inkscape:deskcolor="#d1d1d1"
     inkscape:document-units="mm"
     showgrid="false" />
  <defs
     id="defs475" />
  <g
     inkscape:label="Layer 1"
     inkscape:groupmode="layer"
     id="layer1">
    <path
       style="fill:#ff6600;stroke-width:0.0074204"
       d="m 2.1022213,4.8787404 c -0.00897,-0.00386 -0.037923,-0.00871 -0.064121,-0.011242 -0.026766,-0.00231 -0.081304,-0.017209 -0.124648,-0.033287 -0.042386,-0.015758 -0.082375,-0.028618 -0.088917,-0.028618 -0.014795,0 -0.1078064,-0.060372 -0.1689366,-0.1096732 -0.028341,-0.022876 -0.053794,-0.051575 -0.066592,-0.075062 -0.018595,-0.034124 -0.020739,-0.045524 -0.020739,-0.1111036 0,-0.065187 0.00251,-0.076981 0.020082,-0.109559 0.039662,-0.071919 0.1628966,-0.1652963 0.2635261,-0.1995969 0.1231532,-0.042005 0.1689028,-0.053175 0.2591213,-0.0632 0.1230704,-0.013767 0.1644822,-0.013767 0.2865115,-1.077e-4 0.089223,0.00995 0.127607,0.019207 0.2580645,0.061973 0.1055765,0.034659 0.2220308,0.122436 0.2617158,0.1973024 0.027017,0.050961 0.036358,0.1064289 0.026022,0.1538053 -0.017271,0.078829 -0.048008,0.1198716 -0.1387694,0.1852133 -0.076589,0.055163 -0.091925,0.062052 -0.2525452,0.1139334 -0.022807,0.0076 -0.065191,0.01752 -0.094221,0.02265 -0.062874,0.011002 -0.3322038,0.015993 -0.3556938,0.00692 z M 2.0063796,3.6971993 C 2.0038678,3.6902787 1.9224294,3.4379071 1.8247023,3.1366164 1.7269799,2.8353189 1.6452069,2.5830579 1.6429843,2.576027 1.6397143,2.564713 1.6454943,2.563256 1.6941303,2.563092 1.7651843,2.5629311 1.8619097,2.547868 1.9754539,2.519249 2.0928234,2.489641 2.1020517,2.48711 2.1601461,2.468753 2.1870871,2.460153 2.2210391,2.449704 2.2355001,2.445413 2.2949934,2.4278157 2.4519949,2.3554231 2.5634323,2.29414 2.7515295,2.1906941 2.922878,2.040739 2.9818721,1.9279519 3.0358305,1.824745 3.0505309,1.7376741 3.0312035,1.634895 3.0119513,1.5324069 2.9669191,1.4448387 2.897928,1.3759085 2.868187,1.3462211 2.8367064,1.3197477 2.8280222,1.3171474 2.8193798,1.3148773 2.8034875,1.3064216 2.7929106,1.2992451 2.7587833,1.2759835 2.6253706,1.2287 2.5709617,1.2205349 2.4496608,1.2024044 2.4027865,1.2027107 2.2773357,1.222805 2.2112367,1.233291 2.1349058,1.248824 2.1077388,1.257386 2.0457728,1.276821 1.893624,1.34006 1.8585988,1.3609228 c -0.014458,0.0086 -0.03825,0.021036 -0.052799,0.027541 -0.032223,0.01439 -0.1420164,0.087045 -0.1919221,0.126964 -0.105883,0.08469 -0.2721684,0.2579683 -0.332915,0.3469065 -0.010996,0.016065 -0.022391,0.029223 -0.025278,0.029223 -0.00492,0 -0.54548516,-0.6814871 -0.56106793,-0.7069271 -0.007441,-0.012015 0.022718,-0.057999 0.12281467,-0.1878153 C 0.91986924,0.86398528 1.1310038,0.65767041 1.2592556,0.56509042 1.4196145,0.44932053 1.5769336,0.36000691 1.7379542,0.29329597 1.886169,0.23185639 1.9682729,0.20800229 2.1525766,0.17261391 c 0.031064,-0.006134 0.075189,-0.0148362 0.098005,-0.0196628 0.022895,-0.004545 0.1258227,-0.0103366 0.2299303,-0.0123115 0.1554685,-0.003059 0.201012,-0.001483 0.2600807,0.008895 0.039411,0.006921 0.09537,0.0150753 0.1243922,0.0183677 0.262336,0.0300732 0.6647875,0.21353098 0.9460947,0.43130777 0.08523,0.0659581 0.2177923,0.192328 0.2638478,0.25148826 C 4.179016,0.98439475 4.2621653,1.2207495 4.2854242,1.4490705 4.2963591,1.555843 4.2956971,1.6148188 4.2821511,1.7235727 4.2403462,2.0689268 4.1083308,2.3619915 3.9053608,2.5602421 3.7896941,2.6732194 3.6794874,2.7490061 3.573264,2.7886007 c -0.024873,0.0093 -0.060476,0.023717 -0.07916,0.032058 -0.01867,0.0083 -0.054286,0.019357 -0.07916,0.024487 -0.024873,0.00534 -0.058826,0.013084 -0.075354,0.017678 -0.035207,0.00968 -0.1121471,0.02693 -0.1658533,0.037032 -0.048829,0.0093 -0.3072845,0.028689 -0.3820442,0.028767 l -0.057841,6.13e-5 -0.014719,0.038336 c -0.00831,0.021115 -0.027268,0.07613 -0.042549,0.1223424 -0.015286,0.046217 -0.068582,0.2047863 -0.1183685,0.3524159 l -0.090556,0.26842 H 2.2388575 c -0.2113547,0 -0.2291031,-7.752e-4 -0.2327971,-0.012771 z"
       id="path318" />
  </g>
</svg>
