<?xml version="1.0" encoding="UTF-8" standalone="no"?>
<!-- Created with Inkscape (http://www.inkscape.org/) -->

<svg
   width="210mm"
   height="297mm"
   viewBox="0 0 210 297"
   version="1.1"
   id="svg5"
   xml:space="preserve"
   inkscape:export-filename="qli-off.svg"
   inkscape:export-xdpi="96"
   inkscape:export-ydpi="96"
   xmlns:inkscape="http://www.inkscape.org/namespaces/inkscape"
   xmlns:sodipodi="http://sodipodi.sourceforge.net/DTD/sodipodi-0.dtd"
   xmlns="http://www.w3.org/2000/svg"
   xmlns:svg="http://www.w3.org/2000/svg"><sodipodi:namedview
     id="namedview7"
     pagecolor="#ffffff"
     bordercolor="#000000"
     borderopacity="0.25"
     inkscape:showpageshadow="2"
     inkscape:pageopacity="0.0"
     inkscape:pagecheckerboard="0"
     inkscape:deskcolor="#d1d1d1"
     inkscape:document-units="mm"
     showgrid="false" /><defs
     id="defs2" /><g
     inkscape:label="Layer 1"
     inkscape:groupmode="layer"
     id="layer1"><path
       style="fill:#d40000;stroke-width:0.264583"
       d="m 92.239286,221.18332 c -0.317545,-0.131 -1.329576,-0.3141 -2.248959,-0.40688 -0.940805,-0.095 -2.853451,-0.62211 -4.374909,-1.2058 -1.486815,-0.5704 -2.891178,-1.03709 -3.120802,-1.03709 -0.519332,0 -3.783902,-2.1873 -5.929202,-3.97264 -0.994372,-0.82752 -1.887399,-1.86659 -2.336299,-2.71835 -0.652122,-1.23738 -0.726655,-1.65019 -0.726655,-4.02463 0,-2.36021 0.07625,-2.78865 0.706274,-3.96875 1.391414,-2.60626 5.717029,-5.98767 9.249031,-7.23013 4.322223,-1.52044 5.927826,-1.92476 9.094287,-2.2901 4.319424,-0.49836 5.772933,-0.4991 10.055788,-0.005 3.13135,0.36117 4.4787,0.69526 9.05721,2.2458 3.70542,1.25486 7.79263,4.43511 9.18553,7.14724 0.94787,1.84562 1.27736,3.85516 0.91349,5.57134 -0.60548,2.85572 -1.68463,4.34234 -4.87035,6.70924 -2.68823,1.99729 -3.22632,2.24784 -8.86354,4.12715 -0.80036,0.26683 -2.28864,0.6356 -3.30729,0.81951 -2.20529,0.39815 -11.659197,0.5793 -12.483604,0.2392 z m -3.363757,-42.80029 c -0.07717,-0.25466 -2.946513,-9.39271 -6.376318,-20.30677 -3.429806,-10.91407 -6.299744,-20.05211 -6.377643,-20.30677 -0.125846,-0.41142 0.07415,-0.46355 1.794425,-0.46777 2.494299,-0.006 5.888432,-0.55242 9.873559,-1.58921 4.119216,-1.07167 4.443355,-1.16319 6.482292,-1.83017 0.945885,-0.30942 2.13651,-0.68959 2.645833,-0.84482 2.088983,-0.63667 7.598203,-3.25972 11.509383,-5.47984 6.60145,-3.74721 12.61542,-9.1793 14.68582,-13.26489 1.89447,-3.73843 2.40927,-6.89271 1.73256,-10.61569 -0.6748,-3.712428 -2.25645,-6.884778 -4.67735,-9.38147 -1.04412,-1.076804 -2.14846,-2.035339 -2.45409,-2.130081 -0.30563,-0.09475 -0.86031,-0.38663 -1.23261,-0.648639 -1.19649,-0.842024 -5.88023,-2.556402 -7.78975,-2.851262 -4.25731,-0.657394 -5.9025,-0.645398 -10.305591,0.07514 -2.32019,0.379685 -4.998726,0.942948 -5.952302,1.251699 -2.173563,0.703757 -7.514813,2.994768 -8.744016,3.750553 -0.508654,0.312748 -1.342091,0.76117 -1.852084,0.9965 -1.130302,0.52155 -4.98435,3.152992 -6.736101,4.599222 -3.715988,3.067878 -9.552221,9.344758 -11.684156,12.566328 -0.385704,0.58284 -0.78552,1.05971 -0.888479,1.05971 -0.161715,0 -19.144958,-24.686422 -19.691866,-25.607937 -0.258393,-0.435379 0.797092,-2.101305 4.310529,-6.803522 3.595288,-4.811763 11.005462,-12.28518 15.506562,-15.638904 5.628333,-4.193612 11.149534,-7.429034 16.801042,-9.845407 5.201793,-2.22409 8.083499,-3.089819 14.552083,-4.371769 1.091406,-0.216296 2.639218,-0.536628 3.439583,-0.71185 0.803875,-0.17599 4.415806,-0.375189 8.069796,-0.44505 5.45633,-0.104321 7.05472,-0.0481 9.12812,0.32107 1.38245,0.246144 3.34698,0.546119 4.36563,0.666609 9.20731,1.089088 23.3322,7.735125 33.20521,15.623702 2.99118,2.389968 7.64381,6.967088 9.26021,9.109932 3.65347,4.843349 6.57156,13.404911 7.38786,21.675638 0.38173,3.867708 0.35966,6.004148 -0.10274,9.943688 -1.46835,12.5101 -6.10058,23.12636 -13.2243,30.30786 -4.05957,4.09249 -7.9274,6.83757 -11.65541,8.27208 -0.87312,0.33597 -2.12328,0.85814 -2.77812,1.16036 -0.65485,0.30223 -1.905,0.70196 -2.77813,0.88828 -0.87312,0.18632 -2.06375,0.47439 -2.64583,0.64015 -1.23586,0.35193 -3.93587,0.97464 -5.82083,1.34247 -1.71434,0.33453 -10.78476,1.0391 -13.4086,1.04154 l -2.03151,0.002 -0.51658,1.38907 c -0.28412,0.76398 -0.95586,2.75828 -1.49276,4.43177 -0.5369,1.67349 -2.40637,7.41825 -4.15437,12.76614 l -3.17818,9.72344 h -8.030238 c -7.418004,0 -8.040931,-0.0353 -8.170543,-0.46302 z"
       id="path318" /></g></svg>
